<svg xmlns="http://www.w3.org/2000/svg" width="49.966" height="51" viewBox="0 0 49.966 51">
  <g id="logo" transform="translate(-826 -306.908)">
    <circle id="Ellipse_10" data-name="Ellipse 10" cx="6.656" cy="6.656" r="6.656" transform="translate(826 335.617)" fill="#fff"/>
    <circle id="Ellipse_11" data-name="Ellipse 11" cx="4.16" cy="4.16" r="4.16" transform="translate(848.945 349.588)" fill="#fff"/>
    <circle id="Ellipse_12" data-name="Ellipse 12" cx="9.984" cy="9.984" r="9.984" transform="translate(845.278 317.331)" fill="#fff"/>
    <path id="ic_wb_sunny_24px" d="M9.813,7.309,6.747,4.259l-2.4,2.4,3.05,3.05Zm-4.7,9.643H0v3.407H5.111ZM20.444,0H17.037V5.026h3.407V0ZM33.137,6.661l-2.4-2.4-3.05,3.05,2.4,2.4ZM27.668,30l3.05,3.067,2.4-2.4-3.067-3.05L27.668,30Zm4.7-13.05v3.407h5.111V16.952ZM18.741,8.433A10.222,10.222,0,1,0,28.963,18.655,10.23,10.23,0,0,0,18.741,8.433Zm-1.7,28.878h3.407V32.285H17.037ZM4.344,30.649l2.4,2.4L9.8,29.985l-2.4-2.4Z" transform="matrix(0.995, -0.105, 0.105, 0.995, 834.79, 310.826)" fill="#fff"/>
    <rect id="Rectangle_27" data-name="Rectangle 27" width="1.33" height="9.313" transform="matrix(0.469, -0.883, 0.883, 0.469, 839.694, 347.312)" fill="#fff"/>
    <rect id="Rectangle_28" data-name="Rectangle 28" width="1.33" height="7.317" transform="translate(839.092 337.647) rotate(-122)" fill="#fff"/>
  </g>
</svg>
